<mxfile host="app.diagrams.net" modified="2024-06-07T10:07:04.649Z" agent="Mozilla/5.0 (Windows NT 10.0; Win64; x64) AppleWebKit/537.36 (KHTML, like Gecko) Chrome/125.0.0.0 Safari/537.36 Edg/125.0.0.0" version="24.5.1" etag="5GN-BzCIoAMkclwamV2S" type="github">
  <diagram name="Pagina-1" id="g0TK6jZ5H1EM_38zaLcQ">
    <mxGraphModel>
      <root>
        <mxCell id="0" />
        <mxCell id="1" parent="0" />
      </root>
    </mxGraphModel>
  </diagram>
</mxfile>
